<svg xmlns="http://www.w3.org/2000/svg" version="1.1" xmlns:xlink="http://www.w3.org/1999/xlink" xmlns:svgjs="http://svgjs.dev/svgjs" width="256" height="256"><svg version="1.1" id="SvgjsSvg1002" xmlns="http://www.w3.org/2000/svg" xmlns:xlink="http://www.w3.org/1999/xlink" x="0px" y="0px" viewBox="0 0 256 256" style="enable-background:new 0 0 256 256;" xml:space="preserve">
<style type="text/css">
	.st0{fill:#FC5D3D;}
	.st1{fill:#AFAFAF;}
	.st2{fill:#72C2E9;}
	.st3{fill:#FFFFFF;}
	.st4{fill:#EFEFEF;}
	.st5{fill:#878787;}
	.st6{fill:#F0C020;}
	.st7{fill:#F8E5B0;}
	.st8{fill:#B34F33;}
	.st9{fill:#FFCBC3;}
	.st10{fill:#FFB69F;}
	.st11{fill:#C5E5FE;}
	.st12{fill:#13BF6D;}
	.st13{fill:#F9E5AF;}
	.st14{fill:#7A7380;}
	.st15{fill:#72C1E8;}
	.st16{fill:#C5E5FF;}
	.st17{fill:#FFCBC2;}
	.st18{fill:#6E6D6C;}
	.st19{fill:#F2E1D7;}
	.st20{fill:#7D7B79;}
	.st21{fill:#D6C0B3;}
	.st22{fill:#76FFBB;}
	.st23{fill:#CF941C;}
	.st24{fill:#7C7B7A;}
	.st25{fill:#FEB69F;}
	.st26{fill:#E8A61E;}
	.st27{fill:#EFF0F0;}
	.st28{fill:#EDC21D;}
	.st29{fill:#4BA5C8;}
	.st30{fill:#E8A61F;}
	.st31{fill:#823A26;}
	.st32{fill:#4C4944;}
	.st33{fill:#4C4945;}
</style>
<g>
	<path class="st2" d="M246.667,51.769H9.333c-2.761,0-5-2.239-5-5V14.688c0-5.523,4.477-10,10-10h227.333c5.523,0,10,4.477,10,10
		v32.081C251.667,49.53,249.428,51.769,246.667,51.769z"></path>
	<circle class="st6" cx="27.47" cy="28.228" r="6.136"></circle>
	<circle class="st6" cx="60.98" cy="28.228" r="6.136"></circle>
	<circle class="st6" cx="195.02" cy="28.228" r="6.136"></circle>
	<circle class="st6" cx="228.53" cy="28.228" r="6.136"></circle>
	<path class="st1" d="M238.9,51.77V198.1h-20.31V82.31c0-5.52-4.47-10-10-10H47.41c-5.53,0-10,4.48-10,10V198.1H17.1V51.77H238.9z"></path>
	<path class="st6" d="M208.59,72.31h-9.15v106.83h-34.82c0,3.87-16.39,7-36.62,7s-36.62-3.13-36.62-7H56.56V72.31h-9.15
		c-5.53,0-10,4.48-10,10V198.1h181.18V82.31C218.59,76.79,214.12,72.31,208.59,72.31z"></path>
	<path class="st3" d="M199.44,72.31v106.83h-34.82v-12.58c0-3.86-16.39-7-36.62-7s-36.62,3.14-36.62,7v12.58H56.56V72.31H199.44z"></path>
	<path class="st1" d="M164.62,166.56v12.58c0,3.87-16.39,7-36.62,7s-36.62-3.13-36.62-7v-12.58c0,6.1,30.28,7,36.62,7
		C135.13,173.56,164.62,172.58,164.62,166.56z"></path>
	<ellipse class="st6" cx="128" cy="166.56" rx="36.62" ry="7"></ellipse>
	<path class="st2" d="M146.688,99.245h-37.375c-2.449,0-4.537-1.774-4.934-4.19l-3.732-22.742h54.707l-3.732,22.742
		C151.225,97.471,149.137,99.245,146.688,99.245z"></path>
	<path class="st1" d="M141.135,99.245h-26.27V111c0,2.267,1.838,4.105,4.105,4.105h18.061c2.267,0,4.105-1.838,4.105-4.105V99.245z"></path>
	<path class="st2" d="M241.667,233.896H14.333c-5.523,0-10-4.477-10-10v-20.792c0-2.761,2.239-5,5-5h237.333c2.761,0,5,2.239,5,5
		v20.792C251.667,229.419,247.19,233.896,241.667,233.896z"></path>
	<path class="st11" d="M240.667,225.396H30.459c-1.381,0-2.5-1.119-2.5-2.5s1.119-2.5,2.5-2.5h207.708v-11.292
		c0-1.381,1.119-2.5,2.5-2.5s2.5,1.119,2.5,2.5v13.792C243.167,224.277,242.048,225.396,240.667,225.396z M20.459,225.396h-5.125
		c-1.381,0-2.5-1.119-2.5-2.5s1.119-2.5,2.5-2.5h5.125c1.381,0,2.5,1.119,2.5,2.5S21.84,225.396,20.459,225.396z"></path>
	<path class="st1" d="M44.409,251.313h-24.75c-1.657,0-3-1.343-3-3v-14.417h30.75v14.417
		C47.409,249.969,46.066,251.313,44.409,251.313z"></path>
	<path class="st1" d="M236.341,251.313h-24.75c-1.657,0-3-1.343-3-3v-14.417h30.75v14.417
		C239.341,249.969,237.998,251.313,236.341,251.313z"></path>
	<rect x="88.354" y="17.978" class="st6" width="79.293" height="20.5"></rect>
	<path d="M104.5,30.728h47c1.381,0,2.5-1.119,2.5-2.5s-1.119-2.5-2.5-2.5h-47c-1.381,0-2.5,1.119-2.5,2.5
		S103.119,30.728,104.5,30.728z"></path>
	<path d="M123.125,83.279c-1.381,0-2.5,1.119-2.5,2.5v0.784c0,1.381,1.119,2.5,2.5,2.5s2.5-1.119,2.5-2.5v-0.784
		C125.625,84.398,124.506,83.279,123.125,83.279z"></path>
	<path d="M132.875,83.279c-1.381,0-2.5,1.119-2.5,2.5v0.784c0,1.381,1.119,2.5,2.5,2.5s2.5-1.119,2.5-2.5v-0.784
		C135.375,84.398,134.256,83.279,132.875,83.279z"></path>
	<circle cx="191.35" cy="4.69" r="2.5"></circle>
	<path d="M246.67,54.27c4.13,0,7.49-3.37,7.5-7.5V14.69c-0.01-6.89-5.61-12.5-12.5-12.5h-40.32c-1.38,0-2.5,1.12-2.5,2.5
		s1.12,2.5,2.5,2.5h40.32c4.13,0,7.49,3.37,7.5,7.5v32.08c-0.01,1.38-1.13,2.5-2.5,2.5h-7.77c-11.24,0-217.928,0-229.571,0
		c-1.37,0-2.49-1.12-2.5-2.5V14.69c0.01-4.13,3.38-7.5,7.5-7.5h167.02c1.38,0,2.5-1.12,2.5-2.5s-1.12-2.5-2.5-2.5H14.33
		c-6.89,0-12.49,5.61-12.5,12.5v32.08c0.01,4.13,3.37,7.5,7.5,7.5H14.6V195.6H9.33c-4.13,0.01-7.49,3.37-7.5,7.5v20.8
		c0.01,6.833,5.519,12.389,12.33,12.491v11.921c0,3.033,2.467,5.5,5.5,5.5h24.75c3.033,0,5.5-2.467,5.5-5.5V236.4H171.67
		c1.38,0,2.5-1.13,2.5-2.5c0-1.38-1.12-2.5-2.5-2.5c-2.672,0-140.376,0-157.34,0c-4.12-0.01-7.49-3.38-7.5-7.5v-20.8
		c0.01-1.37,1.13-2.49,2.5-2.5c11.169,0,220.129,0,229.571,0h7.77c1.37,0.01,2.49,1.13,2.5,2.5v20.8c-0.01,4.12-3.37,7.49-7.5,7.5
		c0,0-49.841,0-50,0c-1.38,0-2.5,1.12-2.5,2.5c0,1.37,1.12,2.5,2.5,2.5h14.421v11.913c0,3.033,2.468,5.5,5.5,5.5h24.75
		c3.032,0,5.5-2.467,5.5-5.5v-11.922c6.81-0.103,12.319-5.659,12.329-12.491v-20.8c-0.01-4.13-3.37-7.49-7.5-7.5h-5.27V54.27H246.67
		z M44.909,248.313c0,0.276-0.224,0.5-0.5,0.5h-24.75c-0.276,0-0.5-0.224-0.5-0.5V236.4h25.75V248.313z M236.341,248.813h-24.75
		c-0.275,0-0.5-0.224-0.5-0.5V236.4h25.75v11.913C236.841,248.588,236.616,248.813,236.341,248.813z M54.06,74.81v59.15
		c0,1.38,1.12,2.5,2.5,2.5c1.38,0,2.5-1.12,2.5-2.5V74.81h39.463l3.388,20.649c0.597,3.642,3.71,6.285,7.401,6.285h3.053V111
		c0,3.642,2.963,6.604,6.604,6.604h6.53v10.296c0,1.381,1.119,2.5,2.5,2.5s2.5-1.119,2.5-2.5v-10.296h6.53
		c3.642,0,6.604-2.963,6.604-6.604v-9.255h3.053c3.689,0,6.803-2.643,7.401-6.285l3.388-20.649h39.463v101.83H167.12v-10.08
		c0-0.185-0.023-0.364-0.061-0.537c-1.279-8.517-32.66-8.963-39.059-8.963c-6.399,0-37.78,0.445-39.059,8.963
		c-0.038,0.174-0.061,0.353-0.061,0.537v10.08H59.06v-22.68c0-1.38-1.12-2.5-2.5-2.5c-1.38,0-2.5,1.12-2.5,2.5v24.138l-14.15,14.01
		c0-0.584-0.006-109.425,0.011-110.009c0.123-4.028,3.424-7.272,7.478-7.287C47.635,74.81,53.823,74.81,54.06,74.81z
		 M118.97,112.604c-0.885,0-1.604-0.72-1.604-1.604v-9.255h21.27V111c0,0.885-0.72,1.604-1.604,1.604H118.97z M109.312,96.745
		c-1.23,0-2.268-0.881-2.467-2.095l-3.255-19.837h48.82l-3.255,19.836c-0.2,1.214-1.237,2.096-2.468,2.096
		C127.626,96.745,128.545,96.745,109.312,96.745z M57.588,181.64h32.258c5.415,6.627,32.286,7,38.154,7
		c5.867,0,32.739-0.374,38.154-7h32.258l14.1,13.96H43.488L57.588,181.64z M93.88,171.83c8.377,3.463,25.083,4.23,34.12,4.234
		c9.016,0.004,25.756-0.775,34.12-4.234v6.957c-1.772,1.725-13.382,4.853-34.12,4.853s-32.348-3.128-34.12-4.853V171.83z
		 M128,171.059c-14.94-0.021-29.086-1.831-33.623-4.512c2.897-1.767,14.3-4.487,33.623-4.487c19.324,0,30.726,2.72,33.623,4.487
		C155.254,170.311,135.694,171.07,128,171.059z M216.09,82.31c0,21.832,0,87.976,0,109.797l-14.15-14.01V74.81h6.65
		C212.72,74.82,216.08,78.18,216.09,82.31z M236.4,195.6H221.09c0-10.571,0-102.624,0-113.29c0-6.893-5.607-12.5-12.5-12.5
		c-5.522,0-155.404,0-161.18,0c-6.83,0-12.5,5.564-12.5,12.5V195.6H19.6V54.27h216.8V195.6z"></path>
	<circle cx="181.67" cy="233.9" r="2.5"></circle>
	<path d="M18.833,28.228c0,4.762,3.874,8.637,8.636,8.637s8.636-3.875,8.636-8.637s-3.874-8.636-8.636-8.636
		S18.833,23.466,18.833,28.228z M31.106,28.228c0,2.005-1.631,3.637-3.636,3.637s-3.636-1.631-3.636-3.637
		c0-2.005,1.631-3.636,3.636-3.636S31.106,26.223,31.106,28.228z"></path>
	<path d="M52.343,28.228c0,4.762,3.875,8.637,8.637,8.637s8.636-3.875,8.636-8.637s-3.874-8.636-8.636-8.636
		S52.343,23.466,52.343,28.228z M64.616,28.228c0,2.005-1.631,3.637-3.636,3.637c-2.005,0-3.637-1.631-3.637-3.637
		c0-2.005,1.631-3.636,3.637-3.636C62.985,24.592,64.616,26.223,64.616,28.228z"></path>
	<path d="M195.021,36.865c4.762,0,8.636-3.875,8.636-8.637s-3.874-8.636-8.636-8.636c-4.763,0-8.637,3.874-8.637,8.636
		S190.258,36.865,195.021,36.865z M195.021,24.592c2.005,0,3.636,1.631,3.636,3.636c0,2.005-1.631,3.637-3.636,3.637
		s-3.637-1.631-3.637-3.637C191.384,26.223,193.016,24.592,195.021,24.592z"></path>
	<path d="M237.167,28.228c0-4.762-3.874-8.636-8.637-8.636s-8.637,3.874-8.637,8.636s3.874,8.637,8.637,8.637
		S237.167,32.99,237.167,28.228z M224.894,28.228c0-2.005,1.632-3.636,3.637-3.636s3.637,1.631,3.637,3.636
		c0,2.005-1.632,3.637-3.637,3.637S224.894,30.233,224.894,28.228z"></path>
	<path d="M88.354,15.478c-1.381,0-2.5,1.119-2.5,2.5v20.5c0,1.381,1.119,2.5,2.5,2.5h79.293c1.381,0,2.5-1.119,2.5-2.5v-20.5
		c0-1.381-1.119-2.5-2.5-2.5H88.354z M165.146,35.978H90.854v-15.5h74.293V35.978z"></path>
	<circle cx="56.56" cy="143.96" r="2.5"></circle>
</g>
</svg><style>@media (prefers-color-scheme: light) { :root { filter: none; } }
@media (prefers-color-scheme: dark) { :root { filter: none; } }
</style></svg>